<mxfile host="app.diagrams.net" modified="2023-05-26T10:17:14.482Z" agent="Mozilla/5.0 (Windows NT 10.0; Win64; x64) AppleWebKit/537.36 (KHTML, like Gecko) Chrome/113.0.0.0 Safari/537.36" etag="IaS3vcvOJ78K1VGWxSpr" version="21.3.2" type="device">
  <diagram name="Strona-1" id="dMtLwT9zNeXarjZb60v_">
    <mxGraphModel dx="1395" dy="640" grid="1" gridSize="10" guides="1" tooltips="1" connect="1" arrows="1" fold="1" page="1" pageScale="1" pageWidth="827" pageHeight="1169" math="0" shadow="0">
      <root>
        <mxCell id="0" />
        <mxCell id="1" parent="0" />
        <mxCell id="rwfQUPlScknccJ6-YMUm-1" value="Generator Raportów" style="shape=umlLifeline;perimeter=lifelinePerimeter;whiteSpace=wrap;html=1;container=1;dropTarget=0;collapsible=0;recursiveResize=0;outlineConnect=0;portConstraint=eastwest;newEdgeStyle={&quot;edgeStyle&quot;:&quot;elbowEdgeStyle&quot;,&quot;elbow&quot;:&quot;vertical&quot;,&quot;curved&quot;:0,&quot;rounded&quot;:0};participant=umlControl;" vertex="1" parent="1">
          <mxGeometry x="430" width="40" height="480" as="geometry" />
        </mxCell>
        <mxCell id="rwfQUPlScknccJ6-YMUm-9" value="" style="html=1;points=[];perimeter=orthogonalPerimeter;outlineConnect=0;targetShapes=umlLifeline;portConstraint=eastwest;newEdgeStyle={&quot;edgeStyle&quot;:&quot;elbowEdgeStyle&quot;,&quot;elbow&quot;:&quot;vertical&quot;,&quot;curved&quot;:0,&quot;rounded&quot;:0};" vertex="1" parent="rwfQUPlScknccJ6-YMUm-1">
          <mxGeometry x="15" y="80" width="10" height="270" as="geometry" />
        </mxCell>
        <mxCell id="rwfQUPlScknccJ6-YMUm-2" value="Pracownik" style="shape=umlLifeline;perimeter=lifelinePerimeter;whiteSpace=wrap;html=1;container=1;dropTarget=0;collapsible=0;recursiveResize=0;outlineConnect=0;portConstraint=eastwest;newEdgeStyle={&quot;edgeStyle&quot;:&quot;elbowEdgeStyle&quot;,&quot;elbow&quot;:&quot;vertical&quot;,&quot;curved&quot;:0,&quot;rounded&quot;:0};participant=umlActor;" vertex="1" parent="1">
          <mxGeometry x="100" width="20" height="480" as="geometry" />
        </mxCell>
        <mxCell id="rwfQUPlScknccJ6-YMUm-3" value="Baza danych" style="shape=umlLifeline;perimeter=lifelinePerimeter;whiteSpace=wrap;html=1;container=1;dropTarget=0;collapsible=0;recursiveResize=0;outlineConnect=0;portConstraint=eastwest;newEdgeStyle={&quot;edgeStyle&quot;:&quot;elbowEdgeStyle&quot;,&quot;elbow&quot;:&quot;vertical&quot;,&quot;curved&quot;:0,&quot;rounded&quot;:0};participant=umlEntity;" vertex="1" parent="1">
          <mxGeometry x="740" width="40" height="480" as="geometry" />
        </mxCell>
        <mxCell id="rwfQUPlScknccJ6-YMUm-14" value="" style="html=1;points=[];perimeter=orthogonalPerimeter;outlineConnect=0;targetShapes=umlLifeline;portConstraint=eastwest;newEdgeStyle={&quot;edgeStyle&quot;:&quot;elbowEdgeStyle&quot;,&quot;elbow&quot;:&quot;vertical&quot;,&quot;curved&quot;:0,&quot;rounded&quot;:0};" vertex="1" parent="rwfQUPlScknccJ6-YMUm-3">
          <mxGeometry x="15" y="90" width="10" height="40" as="geometry" />
        </mxCell>
        <mxCell id="rwfQUPlScknccJ6-YMUm-4" value="Interfejs użytkownika" style="shape=umlLifeline;perimeter=lifelinePerimeter;whiteSpace=wrap;html=1;container=1;dropTarget=0;collapsible=0;recursiveResize=0;outlineConnect=0;portConstraint=eastwest;newEdgeStyle={&quot;edgeStyle&quot;:&quot;elbowEdgeStyle&quot;,&quot;elbow&quot;:&quot;vertical&quot;,&quot;curved&quot;:0,&quot;rounded&quot;:0};participant=umlBoundary;" vertex="1" parent="1">
          <mxGeometry x="250" width="50" height="490" as="geometry" />
        </mxCell>
        <mxCell id="rwfQUPlScknccJ6-YMUm-6" value="" style="html=1;points=[];perimeter=orthogonalPerimeter;outlineConnect=0;targetShapes=umlLifeline;portConstraint=eastwest;newEdgeStyle={&quot;edgeStyle&quot;:&quot;elbowEdgeStyle&quot;,&quot;elbow&quot;:&quot;vertical&quot;,&quot;curved&quot;:0,&quot;rounded&quot;:0};" vertex="1" parent="rwfQUPlScknccJ6-YMUm-4">
          <mxGeometry x="20" y="60" width="10" height="290" as="geometry" />
        </mxCell>
        <mxCell id="rwfQUPlScknccJ6-YMUm-5" value="Moduł Analizy" style="shape=umlLifeline;perimeter=lifelinePerimeter;whiteSpace=wrap;html=1;container=1;dropTarget=0;collapsible=0;recursiveResize=0;outlineConnect=0;portConstraint=eastwest;newEdgeStyle={&quot;edgeStyle&quot;:&quot;elbowEdgeStyle&quot;,&quot;elbow&quot;:&quot;vertical&quot;,&quot;curved&quot;:0,&quot;rounded&quot;:0};participant=umlControl;" vertex="1" parent="1">
          <mxGeometry x="580" width="40" height="480" as="geometry" />
        </mxCell>
        <mxCell id="rwfQUPlScknccJ6-YMUm-7" value="WybierzTypRaportu" style="html=1;verticalAlign=bottom;endArrow=block;edgeStyle=elbowEdgeStyle;elbow=vertical;curved=0;rounded=0;" edge="1" target="rwfQUPlScknccJ6-YMUm-6" parent="1" source="rwfQUPlScknccJ6-YMUm-2">
          <mxGeometry relative="1" as="geometry">
            <mxPoint x="200" y="60" as="sourcePoint" />
            <Array as="points">
              <mxPoint x="180" y="70" />
            </Array>
          </mxGeometry>
        </mxCell>
        <mxCell id="rwfQUPlScknccJ6-YMUm-10" value="GenerujRaport" style="html=1;verticalAlign=bottom;endArrow=block;edgeStyle=elbowEdgeStyle;elbow=vertical;curved=0;rounded=0;" edge="1" target="rwfQUPlScknccJ6-YMUm-9" parent="1" source="rwfQUPlScknccJ6-YMUm-6">
          <mxGeometry relative="1" as="geometry">
            <mxPoint x="375" y="80" as="sourcePoint" />
            <Array as="points">
              <mxPoint x="340" y="90" />
            </Array>
          </mxGeometry>
        </mxCell>
        <mxCell id="rwfQUPlScknccJ6-YMUm-15" value="PobierzDaneDoRaportu" style="html=1;verticalAlign=bottom;endArrow=block;edgeStyle=elbowEdgeStyle;elbow=vertical;curved=0;rounded=0;" edge="1" target="rwfQUPlScknccJ6-YMUm-14" parent="1" source="rwfQUPlScknccJ6-YMUm-1">
          <mxGeometry relative="1" as="geometry">
            <mxPoint x="685" y="90" as="sourcePoint" />
            <Array as="points">
              <mxPoint x="520" y="100" />
            </Array>
          </mxGeometry>
        </mxCell>
        <mxCell id="rwfQUPlScknccJ6-YMUm-16" value="ZwróćDaneDoRaportu" style="html=1;verticalAlign=bottom;endArrow=open;dashed=1;endSize=8;edgeStyle=elbowEdgeStyle;elbow=vertical;curved=0;rounded=0;" edge="1" source="rwfQUPlScknccJ6-YMUm-14" parent="1" target="rwfQUPlScknccJ6-YMUm-9">
          <mxGeometry relative="1" as="geometry">
            <mxPoint x="685" y="165" as="targetPoint" />
            <Array as="points">
              <mxPoint x="640" y="120" />
              <mxPoint x="570" y="110" />
            </Array>
          </mxGeometry>
        </mxCell>
        <mxCell id="rwfQUPlScknccJ6-YMUm-17" value="alt" style="shape=umlFrame;whiteSpace=wrap;html=1;pointerEvents=0;" vertex="1" parent="1">
          <mxGeometry x="100" y="130" width="690" height="270" as="geometry" />
        </mxCell>
        <mxCell id="rwfQUPlScknccJ6-YMUm-8" value="WydrukujRaport" style="html=1;verticalAlign=bottom;endArrow=open;dashed=1;endSize=8;edgeStyle=elbowEdgeStyle;elbow=vertical;curved=0;rounded=0;" edge="1" source="rwfQUPlScknccJ6-YMUm-6" parent="1" target="rwfQUPlScknccJ6-YMUm-2">
          <mxGeometry relative="1" as="geometry">
            <mxPoint x="200" y="135" as="targetPoint" />
            <Array as="points">
              <mxPoint x="220" y="250" />
              <mxPoint x="210" y="230" />
            </Array>
          </mxGeometry>
        </mxCell>
        <mxCell id="rwfQUPlScknccJ6-YMUm-18" value="" style="html=1;points=[];perimeter=orthogonalPerimeter;outlineConnect=0;targetShapes=umlLifeline;portConstraint=eastwest;newEdgeStyle={&quot;edgeStyle&quot;:&quot;elbowEdgeStyle&quot;,&quot;elbow&quot;:&quot;vertical&quot;,&quot;curved&quot;:0,&quot;rounded&quot;:0};" vertex="1" parent="1">
          <mxGeometry x="595" y="150" width="10" height="30" as="geometry" />
        </mxCell>
        <mxCell id="rwfQUPlScknccJ6-YMUm-19" value="AnalizujDane" style="html=1;verticalAlign=bottom;endArrow=block;edgeStyle=elbowEdgeStyle;elbow=vertical;curved=0;rounded=0;" edge="1" target="rwfQUPlScknccJ6-YMUm-18" parent="1" source="rwfQUPlScknccJ6-YMUm-9">
          <mxGeometry relative="1" as="geometry">
            <mxPoint x="525" y="150" as="sourcePoint" />
            <Array as="points">
              <mxPoint x="500" y="150" />
            </Array>
          </mxGeometry>
        </mxCell>
        <mxCell id="rwfQUPlScknccJ6-YMUm-20" value="WynikAnalizy" style="html=1;verticalAlign=bottom;endArrow=open;dashed=1;endSize=8;edgeStyle=elbowEdgeStyle;elbow=vertical;curved=0;rounded=0;" edge="1" source="rwfQUPlScknccJ6-YMUm-18" parent="1" target="rwfQUPlScknccJ6-YMUm-9">
          <mxGeometry relative="1" as="geometry">
            <mxPoint x="525" y="225" as="targetPoint" />
            <Array as="points">
              <mxPoint x="540" y="170" />
            </Array>
          </mxGeometry>
        </mxCell>
        <mxCell id="rwfQUPlScknccJ6-YMUm-21" value="" style="html=1;points=[];perimeter=orthogonalPerimeter;outlineConnect=0;targetShapes=umlLifeline;portConstraint=eastwest;newEdgeStyle={&quot;edgeStyle&quot;:&quot;elbowEdgeStyle&quot;,&quot;elbow&quot;:&quot;vertical&quot;,&quot;curved&quot;:0,&quot;rounded&quot;:0};" vertex="1" parent="1">
          <mxGeometry x="455" y="190" width="10" height="40" as="geometry" />
        </mxCell>
        <mxCell id="rwfQUPlScknccJ6-YMUm-22" value="GenerujPDF" style="html=1;align=left;spacingLeft=2;endArrow=block;rounded=0;edgeStyle=orthogonalEdgeStyle;curved=0;rounded=0;" edge="1" target="rwfQUPlScknccJ6-YMUm-21" parent="1" source="rwfQUPlScknccJ6-YMUm-21">
          <mxGeometry relative="1" as="geometry">
            <mxPoint x="460" y="210" as="sourcePoint" />
            <Array as="points">
              <mxPoint x="490" y="210" />
              <mxPoint x="490" y="230" />
            </Array>
          </mxGeometry>
        </mxCell>
        <mxCell id="rwfQUPlScknccJ6-YMUm-11" value="ZwróćPDF" style="html=1;verticalAlign=bottom;endArrow=open;dashed=1;endSize=8;edgeStyle=elbowEdgeStyle;elbow=vertical;curved=0;rounded=0;" edge="1" source="rwfQUPlScknccJ6-YMUm-9" parent="1" target="rwfQUPlScknccJ6-YMUm-6">
          <mxGeometry relative="1" as="geometry">
            <mxPoint x="375" y="155" as="targetPoint" />
            <Array as="points">
              <mxPoint x="390" y="240" />
              <mxPoint x="410" y="230" />
            </Array>
          </mxGeometry>
        </mxCell>
        <mxCell id="rwfQUPlScknccJ6-YMUm-23" value="Dane Dostępne" style="text;html=1;strokeColor=none;fillColor=none;align=center;verticalAlign=middle;whiteSpace=wrap;rounded=0;" vertex="1" parent="1">
          <mxGeometry x="160" y="130" width="60" height="30" as="geometry" />
        </mxCell>
        <mxCell id="rwfQUPlScknccJ6-YMUm-24" value="" style="endArrow=none;dashed=1;html=1;rounded=0;exitX=-0.004;exitY=0.506;exitDx=0;exitDy=0;exitPerimeter=0;entryX=1;entryY=0.519;entryDx=0;entryDy=0;entryPerimeter=0;" edge="1" parent="1" source="rwfQUPlScknccJ6-YMUm-17" target="rwfQUPlScknccJ6-YMUm-17">
          <mxGeometry width="50" height="50" relative="1" as="geometry">
            <mxPoint x="130" y="330" as="sourcePoint" />
            <mxPoint x="180" y="280" as="targetPoint" />
          </mxGeometry>
        </mxCell>
        <mxCell id="rwfQUPlScknccJ6-YMUm-25" value="Dane Niedostępne" style="text;html=1;strokeColor=none;fillColor=none;align=center;verticalAlign=middle;whiteSpace=wrap;rounded=0;" vertex="1" parent="1">
          <mxGeometry x="160" y="280" width="60" height="30" as="geometry" />
        </mxCell>
        <mxCell id="rwfQUPlScknccJ6-YMUm-26" value="Else" style="rounded=0;whiteSpace=wrap;html=1;" vertex="1" parent="1">
          <mxGeometry x="100" y="270" width="60" height="20" as="geometry" />
        </mxCell>
        <mxCell id="rwfQUPlScknccJ6-YMUm-27" value="ZwróćBłąd&quot;brakDanych&quot;" style="html=1;verticalAlign=bottom;endArrow=open;dashed=1;endSize=8;edgeStyle=elbowEdgeStyle;elbow=vertical;curved=0;rounded=0;" edge="1" parent="1" source="rwfQUPlScknccJ6-YMUm-9" target="rwfQUPlScknccJ6-YMUm-6">
          <mxGeometry x="0.0303" relative="1" as="geometry">
            <mxPoint x="290" y="250" as="targetPoint" />
            <mxPoint x="455" y="250" as="sourcePoint" />
            <Array as="points">
              <mxPoint x="340" y="290" />
              <mxPoint x="380" y="340" />
              <mxPoint x="400" y="250" />
              <mxPoint x="420" y="240" />
            </Array>
            <mxPoint as="offset" />
          </mxGeometry>
        </mxCell>
        <mxCell id="rwfQUPlScknccJ6-YMUm-28" value="WyświetlBłąd" style="html=1;verticalAlign=bottom;endArrow=open;dashed=1;endSize=8;edgeStyle=elbowEdgeStyle;elbow=vertical;curved=0;rounded=0;" edge="1" parent="1" source="rwfQUPlScknccJ6-YMUm-6" target="rwfQUPlScknccJ6-YMUm-2">
          <mxGeometry relative="1" as="geometry">
            <mxPoint x="120" y="260" as="targetPoint" />
            <mxPoint x="280" y="260" as="sourcePoint" />
            <Array as="points">
              <mxPoint x="210" y="340" />
              <mxPoint x="230" y="260" />
              <mxPoint x="220" y="240" />
            </Array>
          </mxGeometry>
        </mxCell>
      </root>
    </mxGraphModel>
  </diagram>
</mxfile>
